<svg width="150" height="150" viewBox="0 0 150 150" fill="none" xmlns="http://www.w3.org/2000/svg">
<rect width="150" height="150" rx="10" fill="#2F80ED"/>
<path d="M102.616 56.1047L82.2674 35.7558C81.686 35.1744 81.1046 34.8837 80.2325 34.8837H51.1628C47.9651 34.8837 45.3488 37.5 45.3488 40.6977V110.465C45.3488 113.663 47.9651 116.279 51.1628 116.279H97.6744C100.872 116.279 103.488 113.663 103.488 110.465V58.1395C103.488 57.2674 103.198 56.6861 102.616 56.1047ZM80.2325 41.8605L96.5116 58.1395H80.2325V41.8605ZM97.6744 110.465H51.1628V40.6977H74.4186V58.1395C74.4186 61.3372 77.0349 63.9535 80.2325 63.9535H97.6744V110.465Z" fill="#F8F8F8"/>
<path d="M56.9767 93.0232H91.8605V98.8372H56.9767V93.0232ZM56.9767 75.5814H91.8605V81.3953H56.9767V75.5814Z" fill="#F8F8F8"/>
<g clip-path="url(#clip0_10_18)">
<path d="M125.436 25.7267V17.0058H121.076V25.7267H112.355V30.0872H121.076V38.8081H125.436V30.0872H134.157V25.7267H125.436Z" fill="#F8F8F8"/>
</g>
<defs>
<clipPath id="clip0_10_18">
<rect width="23.2558" height="23.2558" fill="white" transform="translate(111.628 16.2791)"/>
</clipPath>
</defs>
</svg>
