<svg width="48" height="48" viewBox="0 0 48 48" fill="none" xmlns="http://www.w3.org/2000/svg">
<g clip-path="url(#clip0_10_6)">
<path fill-rule="evenodd" clip-rule="evenodd" d="M48 0H0V48H48V0ZM16 36V17.524L32.464 37.28C32.7271 37.5956 33.0811 37.8224 33.4777 37.9297C33.8744 38.037 34.2944 38.0195 34.6808 37.8797C35.0671 37.7398 35.401 37.4844 35.637 37.1481C35.8731 36.8117 35.9998 36.4109 36 36V12C36 11.4696 35.7893 10.9609 35.4142 10.5858C35.0391 10.2107 34.5304 10 34 10C33.4696 10 32.9609 10.2107 32.5858 10.5858C32.2107 10.9609 32 11.4696 32 12V30.476L15.536 10.72C15.2729 10.4044 14.9189 10.1776 14.5223 10.0703C14.1256 9.963 13.7056 9.98047 13.3192 10.1203C12.9329 10.2602 12.599 10.5156 12.363 10.8519C12.1269 11.1883 12.0002 11.5891 12 12V36C12 36.5304 12.2107 37.0391 12.5858 37.4142C12.9609 37.7893 13.4696 38 14 38C14.5304 38 15.0391 37.7893 15.4142 37.4142C15.7893 37.0391 16 36.5304 16 36Z" fill="#545454"/>
</g>
<defs>
<clipPath id="clip0_10_6">
<rect width="48" height="48" fill="white"/>
</clipPath>
</defs>
</svg>
